<?xml version="1.0" standalone="no"?>
<!DOCTYPE svg PUBLIC "-//W3C//DTD SVG 20010904//EN"
 "http://www.w3.org/TR/2001/REC-SVG-20010904/DTD/svg10.dtd">
<svg version="1.0" xmlns="http://www.w3.org/2000/svg"
 width="700.000000pt" height="700.000000pt" viewBox="0 0 700.000000 700.000000"
 preserveAspectRatio="xMidYMid meet">

<g transform="translate(0.000000,700.000000) scale(0.100000,-0.100000)"
fill="#fff" stroke="none">
<path d="M284 5740 c-99 -14 -179 -75 -231 -175 -42 -79 -43 -118 -42 -1570 1
-1387 9 -2063 26 -2163 6 -33 19 -62 35 -80 49 -52 70 -110 79 -217 11 -132
20 -168 57 -242 32 -63 59 -89 145 -138 54 -31 94 -34 179 -13 l57 13 -49 12
c-128 31 -258 183 -291 341 -6 33 -10 101 -7 162 4 95 8 113 43 190 66 149
137 234 273 328 90 63 191 105 301 127 110 23 305 16 403 -13 86 -26 196 -84
251 -132 l43 -38 -19 71 c-24 96 -34 280 -17 333 7 21 30 76 51 120 70 148
263 326 443 409 97 45 226 82 317 90 41 4 88 8 104 10 52 5 227 -15 305 -35
282 -72 505 -242 649 -494 41 -73 84 -205 94 -289 l6 -48 -29 21 c-49 35 -211
107 -279 125 -247 63 -519 28 -736 -96 -189 -108 -303 -227 -421 -440 -89
-160 -141 -233 -273 -377 -66 -73 -121 -135 -121 -138 0 -6 1 -6 68 39 60 41
188 91 268 106 32 6 98 11 148 11 142 -1 222 -36 280 -125 31 -47 35 -118 9
-172 -17 -38 -70 -84 -105 -95 -13 -3 85 -6 217 -5 132 1 201 3 153 4 -49 2
-88 5 -88 7 0 2 7 20 15 39 8 20 15 61 15 91 0 193 -189 360 -418 369 -51 2
-53 3 -47 27 14 54 69 173 106 228 109 161 283 285 468 334 105 28 277 28 382
0 239 -64 420 -234 484 -455 18 -64 24 -175 12 -222 -7 -27 -4 -25 45 26 171
182 399 251 591 179 70 -26 167 -116 187 -173 17 -45 25 -46 44 -8 20 38 101
110 151 132 22 10 70 23 107 30 174 32 347 -53 423 -209 36 -74 40 -185 7
-248 -31 -60 -69 -102 -116 -127 -37 -19 -39 -22 -18 -25 14 -2 33 5 45 15 12
11 41 31 64 46 30 19 52 44 72 85 35 69 78 111 149 146 l52 26 593 0 c696 -1
640 -10 769 121 59 61 79 87 84 116 4 21 10 43 14 48 34 44 35 100 35 1950 0
1734 -1 1822 -18 1859 -32 67 -103 129 -185 159 l-73 27 -3142 -1 c-1728 -1
-3165 -5 -3193 -9z m178 -181 c82 -59 75 -189 -13 -235 -41 -21 -121 -15 -150
12 -31 28 -50 71 -51 113 -1 113 121 176 214 110z m6134 6 c59 -38 81 -127 48
-190 -14 -27 -43 -53 -53 -46 -2 1 -7 -3 -11 -9 -12 -19 -100 -14 -129 8 -46
34 -65 69 -65 120 0 110 120 176 210 117z m-436 -247 c82 -108 137 -158 266
-244 56 -37 111 -82 123 -100 35 -50 51 -119 51 -216 l0 -88 -2308 1 c-1269 1
-2677 1 -3130 0 l-823 -1 3 -22 3 -23 765 -5 c421 -3 758 -6 749 -8 -44 -6
-379 -152 -379 -165 0 -1 873 -3 1940 -3 1067 0 1940 1 1940 3 0 4 -195 102
-280 139 l-75 33 798 1 797 0 0 -670 0 -670 -252 0 -253 0 -70 56 c-76 62
-199 125 -289 148 -134 35 -352 43 -446 16 -16 -5 -30 -6 -30 -3 0 3 23 30 50
60 69 76 97 126 121 224 34 133 14 292 -54 426 -35 68 -124 163 -184 196 -45
24 -62 27 -193 31 -136 5 -358 -6 -394 -20 -9 -3 -13 -11 -9 -17 3 -6 1 -7 -6
-3 -30 19 -177 -123 -223 -215 -57 -114 -76 -282 -44 -396 45 -165 201 -322
439 -439 53 -27 97 -52 97 -56 0 -11 -143 -10 -212 1 -31 6 -83 20 -115 33
-83 34 -261 142 -353 215 -64 50 -84 73 -109 125 -85 171 -77 448 18 642 l37
76 -727 0 -727 0 34 -69 c49 -100 66 -171 71 -308 6 -146 -11 -237 -64 -346
-51 -101 -180 -230 -283 -280 -98 -48 -229 -81 -295 -73 -34 3 -43 2 -30 -4
17 -7 14 -9 -15 -9 -26 -1 -31 2 -20 9 12 7 8 10 -15 11 -25 0 -27 2 -10 8 19
8 18 9 -5 13 -25 5 -25 5 3 7 15 0 27 5 27 10 0 5 8 11 18 14 9 2 0 4 -20 3
-20 0 -35 -3 -33 -6 2 -3 -5 -6 -16 -6 -21 0 -27 15 -6 17 6 0 -1 5 -18 10
-16 5 -36 7 -43 4 -7 -3 -10 0 -7 5 3 6 0 10 -7 10 -8 0 -9 3 -2 8 6 4 8 44 5
115 l-6 108 50 -3 50 -3 3 -93 c2 -82 5 -93 20 -88 9 2 33 8 52 11 106 22 260
145 319 255 109 205 58 462 -126 630 -88 80 -129 91 -367 92 -188 1 -204 0
-246 -21 -25 -12 -36 -15 -26 -6 17 13 17 15 3 15 -9 0 -29 -11 -44 -25 -22
-20 -24 -24 -8 -19 15 4 17 4 6 -4 -8 -6 -21 -8 -29 -4 -11 4 -14 1 -10 -10 4
-10 1 -15 -10 -14 -10 1 -25 -17 -39 -44 -13 -25 -23 -39 -23 -32 0 7 -5 10
-10 7 -6 -4 -8 -10 -5 -15 8 -14 -14 -52 -26 -45 -25 16 -78 -198 -79 -318 0
-57 3 -76 12 -71 7 4 8 3 4 -5 -21 -33 98 -272 126 -255 6 4 8 3 5 -3 -7 -12
61 -78 126 -122 42 -29 90 -52 282 -140 39 -18 22 -19 -807 -20 l-848 -1 0
772 c0 535 4 791 11 831 16 79 61 128 185 197 118 66 194 135 275 246 l60 84
2637 -2 2636 -3 66 -87z m-4122 -1111 c-2 -24 -9 -34 -30 -41 -44 -16 -82 3
-86 41 l-3 31 61 1 61 1 -3 -33z m2888 9 c3 -8 1 -24 -6 -35 -8 -16 -20 -21
-51 -21 -44 0 -62 13 -67 48 -3 21 0 22 58 22 43 0 62 -4 66 -14z m-2801 -56
c-3 -5 -11 -10 -16 -10 -6 0 -7 5 -4 10 3 6 11 10 16 10 6 0 7 -4 4 -10z
m2929 -31 c-3 -5 -11 -9 -17 -9 -7 0 -6 4 3 10 10 6 11 10 3 10 -7 0 -13 5
-13 11 0 8 5 8 15 -1 8 -7 12 -16 9 -21z m-3351 -13 c4 -10 1 -13 -7 -10 -20
8 -38 -45 -39 -113 -1 -40 2 -43 45 -50 42 -6 47 -11 52 -56 6 -41 5 -41 -57
-52 -34 -5 -36 -8 -26 -27 10 -18 9 -20 -5 -15 -20 8 -20 3 0 -18 13 -12 14
-19 5 -28 -12 -12 -15 -31 -3 -24 4 3 18 0 32 -5 23 -8 23 -10 7 -19 -9 -6
-14 -15 -11 -21 4 -6 1 -9 -7 -6 -8 2 -29 34 -48 70 -48 94 -53 170 -16 263
24 61 60 125 70 125 1 0 5 -7 8 -14z m630 -140 c43 -82 47 -95 42 -136 -13
-84 -89 -222 -102 -183 -11 31 -46 63 -63 58 -11 -3 -20 0 -24 10 -3 9 -2 13
4 10 20 -12 108 53 93 69 -4 3 -1 6 4 6 6 0 14 -6 16 -12 4 -8 6 -7 6 4 1 11
-15 21 -53 33 l-53 17 9 41 c11 48 21 57 66 57 17 0 32 2 32 5 0 2 -9 20 -20
39 -12 22 -15 38 -9 42 16 9 -10 34 -29 27 -13 -4 -14 -3 -3 5 11 8 10 14 -4
38 -15 26 -13 25 12 -5 15 -18 50 -75 76 -125z m2831 138 c3 -9 4 -20 0 -25
-7 -12 -34 -11 -34 1 0 6 -7 10 -15 10 -8 0 -15 -4 -15 -10 0 -5 5 -10 10 -10
6 0 10 -4 10 -9 0 -5 -11 -4 -24 2 -14 7 -20 15 -14 18 6 4 7 12 3 18 -5 8 1
10 18 6 14 -4 28 -2 31 4 10 16 23 14 30 -5z m-3414 2 c0 -3 -4 -8 -10 -11 -5
-3 -10 -1 -10 4 0 6 5 11 10 11 6 0 10 -2 10 -4z m464 -18 c-3 -5 -12 -4 -20
3 -19 16 -18 18 6 12 11 -3 17 -9 14 -15z m3010 -61 c36 -63 52 -162 37 -223
-14 -56 -55 -136 -82 -160 -18 -16 -20 -15 -30 15 -9 25 -16 31 -33 29 -11 -2
-20 -9 -18 -17 5 -25 -9 -53 -24 -47 -8 3 -12 1 -9 -4 7 -11 -94 -65 -103 -55
-4 3 0 10 8 15 21 13 21 39 0 50 -29 16 -38 11 -10 -5 15 -9 19 -14 10 -15
-13 0 -13 -1 0 -10 17 -11 10 -13 -14 -4 -9 3 -14 10 -11 14 3 4 -6 11 -20 14
-14 4 -25 10 -25 15 0 12 45 22 67 15 14 -5 14 -3 -3 10 -20 14 -25 14 -53 0
-17 -8 -31 -20 -31 -25 0 -5 -9 -9 -20 -9 -13 0 -20 7 -20 20 0 11 4 20 10 20
5 0 7 -7 4 -15 -4 -8 -1 -15 5 -15 6 0 11 7 11 16 0 8 3 13 8 11 4 -3 16 -1
27 4 18 7 18 8 -4 8 -19 1 -22 4 -13 13 8 8 15 8 26 -1 10 -9 16 -9 21 -1 5 9
10 9 18 1 15 -15 27 -14 27 4 0 8 6 15 14 15 8 0 19 13 24 29 8 23 7 31 -4 35
-11 4 -12 10 -5 25 6 10 8 21 5 24 -3 2 7 14 22 26 25 19 29 20 43 7 8 -9 11
-19 7 -23 -4 -4 -11 -1 -16 7 -6 9 -10 10 -10 3 0 -21 21 -26 38 -9 10 10 12
16 4 16 -6 0 -10 6 -8 13 3 6 7 24 10 39 5 21 14 29 41 34 19 3 35 11 35 18 0
6 4 4 10 -4 12 -19 19 -10 11 14 -7 17 -9 17 -23 3 -16 -17 -28 -13 -28 10 0
7 6 13 14 13 20 0 25 33 7 46 -13 10 -13 14 -2 28 17 20 25 15 55 -37z m-671
23 c3 -11 1 -18 -4 -14 -5 3 -9 12 -9 20 0 20 7 17 13 -6z m609 -42 c-7 -7
-12 -8 -12 -2 0 14 12 26 19 19 2 -3 -1 -11 -7 -17z m-2907 2 c-3 -5 -18 -10
-33 -10 -21 0 -24 2 -12 10 20 13 53 13 45 0z m2278 -24 c-5 -31 -3 -34 27
-45 18 -6 43 -11 54 -11 30 0 46 -18 46 -51 0 -31 -31 -59 -66 -59 -33 0 -53
-10 -48 -24 3 -7 6 -26 8 -42 2 -16 4 -32 5 -36 0 -4 7 -5 14 -2 23 8 37 -18
22 -39 -13 -18 -14 -17 -30 6 -31 48 -67 161 -67 213 0 45 23 124 36 124 3 0
2 -15 -1 -34z m591 -38 c-3 -4 -14 -6 -24 -5 -31 5 -32 13 -1 12 16 0 27 -3
25 -7z m-2916 -33 c-3 -3 -9 2 -12 12 -6 14 -5 15 5 6 7 -7 10 -15 7 -18z
m2876 -10 c-11 -8 -14 -15 -6 -15 6 0 12 -5 12 -11 0 -8 -5 -7 -15 1 -14 12
-14 15 1 31 10 11 20 17 22 14 3 -3 -3 -12 -14 -20z m-109 -84 c3 -5 1 -12 -5
-16 -5 -3 -10 1 -10 9 0 18 6 21 15 7z m-2750 -31 c-27 -12 -43 -12 -25 0 8 5
22 9 30 9 10 0 8 -3 -5 -9z m-21 -26 c9 -3 13 -10 10 -15 -8 -14 -21 -11 -28
6 -6 17 -4 18 18 9z m-99 -54 c3 -5 1 -10 -4 -10 -6 0 -11 5 -11 10 0 6 2 10
4 10 3 0 8 -4 11 -10z m-135 -30 c0 -5 8 -10 17 -10 23 0 14 -6 -22 -14 -22
-5 -26 -4 -15 4 10 6 11 10 3 10 -7 0 -13 5 -13 10 0 6 7 10 15 10 8 0 15 -4
15 -10z m60 6 c0 -3 -4 -8 -10 -11 -5 -3 -10 -1 -10 4 0 6 5 11 10 11 6 0 10
-2 10 -4z m45 -16 c3 -11 15 -25 26 -31 18 -9 19 -7 14 14 -4 14 -2 28 5 32
16 10 62 -4 54 -16 -4 -8 -10 -7 -17 0 -6 6 -17 11 -24 11 -11 0 -10 -5 2 -24
11 -16 13 -26 6 -31 -6 -3 -11 -12 -11 -18 0 -7 8 -2 18 9 20 25 63 39 55 18
-3 -8 -9 -11 -14 -8 -5 3 -9 1 -9 -4 0 -5 -17 -17 -37 -26 -21 -9 -45 -21 -55
-26 -16 -9 -44 10 -32 22 3 3 -5 14 -18 25 -30 24 -32 40 -8 48 11 4 20 11 20
16 0 17 19 9 25 -11z m2755 10 c0 -5 -5 -10 -11 -10 -5 0 -7 5 -4 10 3 6 8 10
11 10 2 0 4 -4 4 -10z m-2990 -60 c0 -5 -2 -10 -4 -10 -3 0 -8 5 -11 10 -3 6
-1 10 4 10 6 0 11 -4 11 -10z m1829 -30 c311 -90 560 -365 596 -658 3 -27 -3
-41 -29 -70 -60 -67 -193 -289 -227 -379 -7 -20 6 -12 56 35 137 128 261 203
410 248 224 67 483 17 619 -119 30 -29 66 -77 81 -106 l26 -53 -30 -65 c-17
-36 -31 -69 -31 -73 0 -5 28 3 63 17 181 76 376 -20 377 -185 0 -50 -19 -92
-56 -121 -27 -21 -29 -21 -920 -21 l-892 0 -21 34 c-17 27 -21 50 -21 122 0
157 -39 334 -100 454 -160 317 -462 536 -820 592 -44 7 -80 15 -80 19 0 11
109 109 181 163 95 72 267 153 374 176 123 27 335 22 444 -10z m1259 -67 l3
-93 29 0 c16 0 60 11 96 25 37 14 69 23 72 21 6 -7 -93 -55 -157 -77 -84 -29
-190 -22 -311 22 -43 15 -82 40 -76 47 3 3 12 0 19 -6 20 -17 125 -42 174 -42
l43 0 0 48 c0 26 3 71 7 100 l6 53 46 -3 46 -3 3 -92z m-3062 72 c-3 -8 -1
-15 4 -15 6 0 10 5 10 10 0 6 9 10 20 10 11 0 20 -4 20 -10 0 -5 -3 -9 -7 -8
-5 0 -16 -2 -25 -6 -9 -4 -28 -1 -45 9 -24 13 -25 15 -4 9 16 -4 21 -3 17 5
-4 6 -2 11 4 11 7 0 10 -7 6 -15z m2869 5 c-3 -5 -12 -10 -18 -10 -7 0 -6 4 3
10 19 12 23 12 15 0z m39 -16 c5 -12 2 -15 -10 -10 -8 3 -18 6 -20 6 -3 0 -2
5 1 10 9 15 22 12 29 -6z m-2979 -162 c-3 -3 -11 0 -18 7 -9 10 -8 11 6 5 10
-3 15 -9 12 -12z m175 -62 c0 -5 -5 -10 -11 -10 -5 0 -7 5 -4 10 3 6 8 10 11
10 2 0 4 -4 4 -10z m20 -25 c0 -2 -10 -9 -22 -15 -22 -11 -22 -10 -4 4 21 17
26 19 26 11z m6 -40 c9 -8 11 -15 6 -15 -5 0 -15 7 -22 15 -7 8 -9 15 -6 15 4
0 14 -7 22 -15z m3619 -11 c167 -41 319 -160 388 -305 20 -41 41 -94 46 -119
13 -56 14 -205 2 -248 -5 -17 -8 -32 -6 -32 2 0 27 15 55 34 75 49 159 69 267
64 110 -5 197 -42 276 -117 137 -129 165 -352 59 -465 -53 -56 -54 -56 -525
-56 l-434 0 9 48 c25 130 -48 285 -169 362 -23 15 -39 31 -35 35 4 5 2 5 -4 2
-6 -4 -30 1 -53 10 -31 12 -41 21 -41 39 0 13 -4 26 -10 29 -5 3 -10 11 -10
18 0 8 3 8 12 -1 7 -7 21 -12 33 -12 14 0 7 7 -24 25 -48 28 -62 31 -57 13 1
-7 1 -10 -1 -6 -2 4 -12 4 -21 1 -14 -5 -15 -3 -4 8 17 19 15 34 -3 19 -13
-11 -14 -10 -10 3 4 8 1 18 -6 23 -8 5 -10 3 -3 -7 4 -8 -16 10 -45 38 -29 29
-74 66 -99 83 -51 33 -190 81 -294 100 -47 8 -68 17 -68 27 0 66 132 232 243
304 145 94 353 127 532 83z m-3974 -109 c38 -25 69 -47 69 -50 0 -3 -319 -5
-710 -5 l-710 0 0 48 c0 27 2 51 4 53 2 2 291 3 642 2 l637 -2 68 -46z m4959
0 l0 -55 -183 0 -183 0 -49 50 -49 50 205 3 c112 1 216 3 232 5 26 2 27 1 27
-53z m-1212 -620 c-3 -3 -9 2 -12 12 -6 14 -5 15 5 6 7 -7 10 -15 7 -18z"/>
<path d="M418 5479 c16 -17 15 -47 -1 -62 -27 -25 -59 -38 -80 -31 -22 6 -22
6 -2 -10 26 -20 84 -20 113 0 15 10 22 25 22 48 0 34 -10 48 -45 60 -16 6 -18
5 -7 -5z"/>
<path d="M6563 5454 c1 -43 -33 -78 -70 -71 -28 5 -30 -8 -4 -23 33 -17 67
-11 95 17 33 32 32 78 -1 100 -20 14 -21 13 -20 -23z"/>
<path d="M1475 4239 c-4 -6 -5 -12 -2 -15 2 -3 7 2 10 11 7 17 1 20 -8 4z"/>
<path d="M5923 4233 c-12 -2 -33 -16 -47 -30 l-26 -26 0 -203 c0 -196 1 -204
23 -229 29 -34 96 -45 132 -21 51 34 57 61 53 267 -3 186 -3 189 -28 213 -26
25 -69 37 -107 29z m61 -96 c3 -12 6 -95 6 -184 l0 -163 -35 0 -35 0 0 174 c0
96 2 181 6 189 8 21 51 9 58 -16z"/>
<path d="M6173 4233 c-12 -2 -34 -18 -48 -34 -25 -30 -25 -32 -25 -220 0 -207
6 -235 55 -257 50 -23 103 -11 137 32 14 16 18 41 18 113 l0 93 -60 30 c-65
33 -74 28 -35 -18 20 -25 25 -40 25 -88 0 -77 -8 -104 -30 -104 -36 0 -41 22
-38 201 l3 174 27 3 c28 3 26 10 41 -108 1 -9 15 -16 35 -18 l32 -3 0 71 c0
66 -2 74 -29 101 -16 16 -36 29 -44 29 -9 0 -21 2 -29 4 -7 2 -23 1 -35 -1z"/>
<path d="M357 4213 c-4 -3 -7 -17 -7 -30 l0 -23 325 0 325 0 0 24 c0 20 -6 24
-46 30 -62 8 -589 8 -597 -1z"/>
<path d="M350 4080 l0 -30 308 0 c323 0 354 4 339 44 -6 14 -39 16 -327 16
l-320 0 0 -30z"/>
<path d="M443 4002 c-91 -3 -93 -3 -93 -27 0 -24 2 -25 68 -25 37 0 117 -1
177 -1 61 0 176 0 258 0 l147 1 0 25 c0 24 -2 25 -77 26 -280 3 -399 4 -480 1z"/>
<path d="M346 3884 c-17 -45 -25 -44 324 -44 l330 0 0 24 c0 20 -6 24 -46 30
-26 3 -172 6 -324 6 -244 0 -279 -2 -284 -16z"/>
<path d="M350 3760 l0 -30 319 0 c204 0 322 4 326 10 3 6 3 19 0 30 -6 19 -16
20 -326 20 l-319 0 0 -30z"/>
<path d="M363 3684 c-7 -3 -13 -17 -13 -30 l0 -24 320 0 c282 0 321 2 327 16
14 36 -10 39 -320 41 -166 1 -308 0 -314 -3z"/>
<path d="M5140 4100 c0 -5 5 -10 10 -10 6 0 10 5 10 10 0 6 -4 10 -10 10 -5 0
-10 -4 -10 -10z"/>
<path d="M5125 3825 c19 -15 18 -16 -25 -11 -25 3 -36 3 -25 0 11 -3 27 -8 35
-11 8 -3 25 -5 37 -4 18 2 22 -2 17 -16 -5 -15 -3 -15 7 2 7 11 17 23 23 27 5
4 -3 10 -20 13 -16 4 -38 9 -49 11 l-20 5 20 -16z"/>
<path d="M5010 3609 c0 -5 5 -7 10 -4 6 3 10 8 10 11 0 2 -4 4 -10 4 -5 0 -10
-5 -10 -11z"/>
<path d="M2080 3600 c-8 -5 -10 -10 -5 -10 6 0 17 5 25 10 8 5 11 10 5 10 -5
0 -17 -5 -25 -10z"/>
<path d="M1948 1143 c12 -2 30 -2 40 0 9 3 -1 5 -23 4 -22 0 -30 -2 -17 -4z"/>
<path d="M2138 1143 c18 -2 45 -2 60 0 15 2 0 4 -33 4 -33 0 -45 -2 -27 -4z"/>
</g>
</svg>
